<svg width="529" height="258" viewBox="0 0 529 258" fill="none" xmlns="http://www.w3.org/2000/svg">
<g clip-path="url(#clip0)">
<path fill-rule="evenodd" clip-rule="evenodd" d="M140.469 39.5179L190.71 68.5006C201.991 74.994 208.945 87.0305 208.945 100.04V157.983C208.945 170.992 201.991 183.006 190.71 189.522L140.469 218.482C129.188 224.998 115.303 224.998 104.022 218.482L53.7805 189.499C42.5 183.006 35.5459 170.992 35.5459 157.983V100.017C35.5459 87.0079 42.5 74.994 53.7805 68.478L104.022 39.5179C115.303 33.0019 129.188 33.0019 140.469 39.5179ZM137.252 45.0836C127.965 39.7215 116.526 39.7215 107.239 45.0836L56.9971 74.0437C47.7099 79.4059 41.979 89.293 41.979 100.017V157.96C41.979 168.684 47.7099 178.572 56.9971 183.934L107.239 212.916C116.526 218.278 127.965 218.278 137.252 212.916L187.494 183.934C196.781 178.572 202.512 168.684 202.512 157.96V100.017C202.512 89.293 196.781 79.4059 187.494 74.0437L137.252 45.0836Z" fill="white"/>
<path d="M163.233 159.814C154.602 155.991 142.597 152.122 129.029 151.805C128.621 151.805 128.304 152.145 128.304 152.507V192.146L175.623 166.398C175.034 166.014 174.287 165.561 173.381 165.018C171.002 163.615 167.559 161.715 163.233 159.814Z" fill="white"/>
<path d="M69.5465 94.5204C72.4006 95.9232 76.5233 97.8237 81.6199 99.7016C91.8132 103.48 105.835 107.236 121.17 107.236C136.482 107.236 150.481 103.48 160.697 99.7016C165.794 97.8237 169.939 95.9232 172.793 94.5204C173.903 93.9774 174.832 93.5023 175.534 93.1177L126.719 66.6011C123.254 64.7458 119.154 64.678 115.711 66.6011H115.688L66.8057 93.1177C67.5079 93.4797 68.4366 93.9774 69.5465 94.5204Z" fill="white"/>
<path fill-rule="evenodd" clip-rule="evenodd" d="M118.041 180.335L64.4473 151.33L64.5832 162.145L118.041 191.716V180.335Z" fill="white"/>
<path fill-rule="evenodd" clip-rule="evenodd" d="M118.041 156.467L64.4473 126.964L64.5832 138.593L118.041 167.621V156.467Z" fill="white"/>
<path fill-rule="evenodd" clip-rule="evenodd" d="M98.7199 122.053L64.4932 103.591L64.765 114.406L117.929 143.66C116.909 136.895 110.68 128.547 98.7199 122.053Z" fill="white"/>
<path d="M273.616 76.7441C292.21 76.7441 301.807 83.9663 303.007 97.207H291.01C289.211 89.9848 283.813 86.9756 273.616 86.9756C261.619 86.9756 256.221 91.1885 256.221 100.818C256.221 110.448 261.619 114.661 273.616 114.661C283.813 114.661 289.211 111.651 290.411 103.827H302.407C301.207 117.67 291.61 124.29 273.016 124.29C252.622 124.29 243.625 115.864 243.625 100.216C244.224 85.7719 253.222 76.7441 273.616 76.7441Z" fill="white"/>
<path d="M312.006 105.031C312.006 90.5869 322.803 84.5684 338.998 84.5684C355.193 84.5684 365.99 90.5869 365.99 105.031C365.99 119.476 355.193 125.494 338.998 125.494C322.803 125.494 312.006 119.476 312.006 105.031ZM355.193 105.031C355.193 96.6054 349.795 94.198 339.598 94.198C328.801 94.198 324.002 96.6054 324.002 105.031C324.002 113.457 329.401 115.865 339.598 115.865C349.795 115.865 355.193 112.855 355.193 105.031Z" fill="white"/>
<path d="M429.568 70.7261V124.291H418.171V118.272C413.972 122.485 406.774 124.893 398.377 124.893C385.781 124.893 374.984 119.476 374.984 104.43C374.984 89.3834 385.781 83.9668 398.377 83.9668C406.774 83.9668 413.972 86.3742 418.171 90.5871V70.7261H429.568ZM418.171 105.032C418.171 97.2075 412.773 94.1982 402.576 94.1982C392.379 94.1982 386.98 97.2075 386.98 105.032C386.98 112.856 392.379 115.865 402.576 115.865C412.773 115.865 418.171 112.856 418.171 105.032Z" fill="white"/>
<path d="M482.055 110.448H493.452C491.052 120.679 480.855 125.494 466.46 125.494C451.464 125.494 440.067 119.476 440.067 105.031C440.067 90.5869 451.464 84.5684 467.059 84.5684C482.055 84.5684 494.051 89.3832 494.051 107.439H451.464C452.664 113.457 458.662 115.865 466.46 115.865C474.257 115.865 479.056 114.661 482.055 110.448ZM452.064 100.216H482.055C480.255 94.7998 474.257 92.9943 467.059 92.9943C459.262 92.9943 453.863 94.7998 452.064 100.216Z" fill="white"/>
<path d="M313.418 136.133V186.673H296.029L261.85 148.768V186.673H248.658V136.133H266.047L300.226 174.038V136.133H313.418Z" fill="white"/>
<path d="M321.762 161.403C321.762 144.556 331.356 135.531 353.542 135.531C375.728 135.531 385.323 144.556 385.323 161.403C385.323 178.249 375.728 187.274 353.542 187.274C330.756 187.274 321.762 177.647 321.762 161.403ZM372.131 161.403C372.131 151.174 366.734 146.361 353.542 146.361C340.35 146.361 334.954 151.174 334.954 161.403C334.954 171.631 340.35 176.444 353.542 176.444C366.734 176.444 372.131 171.631 372.131 161.403Z" fill="white"/>
<path d="M490.858 136.133L471.07 186.673H453.081L438.09 148.166L423.099 186.071H405.111L385.323 136.133H399.114L414.105 175.843L429.695 136.133H445.885L461.476 175.843L476.467 136.133H490.858V136.133Z" fill="white"/>
</g>
<defs>
<clipPath id="clip0">
<path d="M0.866211 0H528.866V258H0.866211V0Z" fill="white"/>
</clipPath>
</defs>
</svg>
